<?xml version="1.0" standalone="no"?>
<!DOCTYPE svg PUBLIC "-//W3C//DTD SVG 20010904//EN"
 "http://www.w3.org/TR/2001/REC-SVG-20010904/DTD/svg10.dtd">
<svg version="1.0" xmlns="http://www.w3.org/2000/svg"
 width="1019.000000pt" height="1019.000000pt" viewBox="0 0 1019.000000 1019.000000"
 preserveAspectRatio="xMidYMid meet">
<metadata>
Created by potrace 1.14, written by Peter Selinger 2001-2017
</metadata>
<g transform="translate(0.000000,1019.000000) scale(0.100000,-0.100000)"
fill="#000000" stroke="none">
<path d="M4828 10185 c-2 -1 -48 -5 -103 -9 -94 -6 -119 -8 -220 -21 -22 -2
-62 -7 -90 -10 -27 -3 -90 -13 -140 -21 -49 -9 -103 -18 -120 -21 -16 -2 -61
-11 -100 -20 -38 -8 -80 -17 -93 -19 -166 -33 -524 -145 -762 -238 -156 -62
-511 -233 -616 -297 -35 -21 -66 -39 -69 -39 -12 0 -409 -261 -425 -279 -3 -3
-41 -33 -85 -66 -44 -33 -82 -62 -85 -65 -3 -3 -27 -23 -55 -45 -27 -21 -52
-42 -55 -45 -3 -3 -36 -32 -75 -65 -71 -60 -366 -352 -440 -435 -66 -74 -191
-225 -237 -287 -23 -32 -45 -60 -48 -63 -14 -13 -230 -330 -256 -375 -6 -11
-33 -56 -59 -100 -121 -203 -272 -518 -360 -750 -89 -238 -187 -564 -211 -700
-3 -16 -9 -46 -14 -65 -5 -19 -11 -46 -14 -60 -2 -14 -7 -43 -11 -65 -4 -22
-9 -49 -11 -60 -7 -38 -44 -310 -49 -360 -16 -169 -20 -269 -20 -515 1 -328 7
-432 46 -710 28 -205 75 -432 124 -610 14 -52 28 -104 30 -114 11 -49 122
-363 171 -485 51 -125 211 -460 267 -556 92 -160 119 -205 230 -370 66 -99
119 -172 209 -290 181 -238 533 -598 773 -791 33 -26 62 -51 65 -55 3 -3 66
-51 140 -106 275 -202 497 -337 805 -488 334 -163 539 -238 995 -365 44 -12
302 -67 353 -74 20 -3 54 -8 75 -12 20 -3 62 -9 92 -14 30 -5 84 -12 120 -16
36 -3 72 -8 81 -9 96 -19 714 -27 884 -12 50 4 115 10 145 13 53 4 310 39 360
49 13 2 42 7 64 11 22 3 43 7 46 9 3 2 23 6 45 9 22 4 110 24 195 46 85 22
166 42 180 46 60 13 386 126 505 174 154 62 473 217 600 290 50 29 105 61 124
72 48 27 291 187 322 212 14 12 36 28 49 36 12 8 28 20 34 25 6 6 45 36 86 67
306 229 678 607 941 955 145 192 339 485 339 512 0 6 4 11 8 11 4 0 13 12 19
27 7 16 26 53 43 83 163 288 320 671 421 1025 42 146 47 164 55 205 3 14 9 41
14 60 12 45 57 273 64 325 4 22 9 54 11 70 3 17 7 43 10 60 2 16 7 61 10 100
4 38 8 75 10 82 11 33 20 270 20 513 0 242 -5 350 -20 505 -10 102 -45 357
-50 365 -2 3 -6 26 -10 50 -16 113 -84 392 -140 574 -239 784 -672 1503 -1255
2086 -187 188 -216 214 -355 330 -49 41 -96 80 -103 87 -7 7 -17 13 -20 13 -4
0 -18 10 -32 23 -14 12 -72 56 -130 98 -398 286 -838 515 -1291 674 -57 20
-111 38 -119 40 -8 2 -34 10 -57 19 -24 8 -43 13 -43 11 0 -2 -15 2 -33 10
-46 19 -384 101 -494 119 -136 23 -216 36 -258 41 -27 3 -61 8 -75 10 -24 3
-120 13 -210 21 -54 5 -657 13 -662 9z"/>
</g>
</svg>
